Katy Perry & Nicki Minaj-Girls Just Wanna Have Fun.[HDTV Live].

      Format : AVI
      Format/Info : Audio Video Interleave
      File size : 257 MiB
      Duration : 2mn 56s
      Overall bit rate : 12.2 Mbps
      Writing application : Lavf51.12.1
   Video #0
      ID : 0
      Format : MPEG-4 Visual
      Codec ID : DIV3
      Codec ID/Hint : DivX 3 Low
      Duration : 2mn 56s
      Bit rate : 12.0 Mbps
      Width : 1 920 pixels
      Height : 1 080 pixels
      Display aspect ratio : 16:9
      Frame rate : 29.970 fps
      Resolution : 24 bits
      Bits/(Pixel*Frame) : 0.193
      Stream size : 253 MiB (98%)
   Audio #1
      ID : 1
      Format : MPEG Audio
      Format version : Version 1
      Format profile : Layer 3
      Codec ID : 55
      Codec ID/Hint : MP3
      Duration : 2mn 56s
      Bit rate mode : Constant
      Bit rate : 192 Kbps
      Channel(s) : 2 channels
      Sampling rate : 44.1 KHz
      Resolution : 16 bits
      Stream size : 4.04 MiB (2%)
      Alignment : Aligned on interleaves
      Interleave, duration : 26 ms (0.78 video frame)
      Writing library : LAME3.97